# xmcd
#
# Track frame offsets:
# 150
# 12372
# 22869
# 35390
# 48215
# 59837
# 73259
# 83981
# 96728
# 106699
# 118095
# 133842
# 145389
# 156486
# 171032
# 184079
# 194726
# 205523
# 214595
# 225467
# 235589
# 245786
# 256508
# 270530
#
# Disc length: 3765 seconds
#
#
# Revision: 0
# Processed by: cddbd v1.5.1PL2 Copyright (c) Steve Scherf et al.
# Submitted via: FreeRIP 2.941 
#
DISCID=5a0eb318
DTITLE=Four Jacks - Four Jacks' Allerbedste [CD 2]
DYEAR=1900
DGENRE=Pop
TTITLE0=Tom Dooley
TTITLE1=Milano Rose
TTITLE2=Ciao Ciao Bambina
TTITLE3=Drømmen om dig
TTITLE4=Please drop me a Line
TTITLE5=No, never again
TTITLE6=Waterloo
TTITLE7=Personality
TTITLE8=De glade rensdyr
TTITLE9=Bare man har det godt
TTITLE10=Alene i dalen
TTITLE11=Tennesse Waltz
TTITLE12=La Bella
TTITLE13=O Marie, jeg vil hjem til dig
TTITLE14=Tapre ørn
TTITLE15=Volare
TTITLE16=You, you, you
TTITLE17=Big bouquet of roses
TTITLE18=Sometimes I'm happy
TTITLE19=The donkey serenade
TTITLE20=Make love to me
TTITLE21=She'll be comin' 'round the mountain
TTITLE22=My prayer
TTITLE23=Shine on, harvest moon
EXTD=
EXTT0=
EXTT1=
EXTT2=
EXTT3=
EXTT4=
EXTT5=
EXTT6=
EXTT7=
EXTT8=
EXTT9=
EXTT10=
EXTT11=
EXTT12=
EXTT13=
EXTT14=
EXTT15=
EXTT16=
EXTT17=
EXTT18=
EXTT19=
EXTT20=
EXTT21=
EXTT22=
EXTT23=
PLAYORDER=
